<mxfile host="app.diagrams.net" agent="Mozilla/5.0 (Macintosh; Intel Mac OS X 10_15_7) AppleWebKit/537.36 (KHTML, like Gecko) Chrome/140.0.0.0 Safari/537.36" version="28.0.7">
  <diagram name="Страница — 1" id="gFEb3yaAb7II6vjzwjf2">
    <mxGraphModel dx="702" dy="436" grid="1" gridSize="10" guides="1" tooltips="1" connect="1" arrows="1" fold="1" page="1" pageScale="1" pageWidth="2336" pageHeight="1654" math="0" shadow="0">
      <root>
        <mxCell id="0" />
        <mxCell id="1" parent="0" />
        <mxCell id="tfdzGeJg_Y0rsIuQAaYs-1" value="&lt;font style=&quot;font-size: 14px;&quot;&gt;Client&lt;/font&gt;" style="text;html=1;align=center;verticalAlign=middle;resizable=0;points=[];autosize=1;strokeColor=none;fillColor=none;" vertex="1" parent="1">
          <mxGeometry x="36" y="20" width="60" height="30" as="geometry" />
        </mxCell>
        <mxCell id="tfdzGeJg_Y0rsIuQAaYs-2" value="&lt;font style=&quot;font-size: 14px;&quot;&gt;NameNode&lt;/font&gt;" style="text;html=1;align=center;verticalAlign=middle;resizable=0;points=[];autosize=1;strokeColor=none;fillColor=none;" vertex="1" parent="1">
          <mxGeometry x="189" y="20" width="90" height="30" as="geometry" />
        </mxCell>
        <mxCell id="tfdzGeJg_Y0rsIuQAaYs-3" value="DataNode 1" style="text;html=1;align=center;verticalAlign=middle;resizable=0;points=[];autosize=1;strokeColor=none;fillColor=none;" vertex="1" parent="1">
          <mxGeometry x="9" y="122" width="90" height="30" as="geometry" />
        </mxCell>
        <mxCell id="tfdzGeJg_Y0rsIuQAaYs-5" value="DataNode 2" style="text;html=1;align=center;verticalAlign=middle;resizable=0;points=[];autosize=1;strokeColor=none;fillColor=none;" vertex="1" parent="1">
          <mxGeometry x="119" y="122" width="90" height="30" as="geometry" />
        </mxCell>
        <mxCell id="tfdzGeJg_Y0rsIuQAaYs-6" value="DataNode 3" style="text;html=1;align=center;verticalAlign=middle;resizable=0;points=[];autosize=1;strokeColor=none;fillColor=none;" vertex="1" parent="1">
          <mxGeometry x="229" y="122" width="90" height="30" as="geometry" />
        </mxCell>
        <mxCell id="tfdzGeJg_Y0rsIuQAaYs-9" value="B1" style="whiteSpace=wrap;html=1;aspect=fixed;fillColor=#d5e8d4;strokeColor=#82b366;" vertex="1" parent="1">
          <mxGeometry x="14" y="102" width="20" height="20" as="geometry" />
        </mxCell>
        <mxCell id="tfdzGeJg_Y0rsIuQAaYs-10" value="" style="whiteSpace=wrap;html=1;aspect=fixed;" vertex="1" parent="1">
          <mxGeometry x="44" y="102" width="20" height="20" as="geometry" />
        </mxCell>
        <mxCell id="tfdzGeJg_Y0rsIuQAaYs-11" value="" style="whiteSpace=wrap;html=1;aspect=fixed;" vertex="1" parent="1">
          <mxGeometry x="74" y="102" width="20" height="20" as="geometry" />
        </mxCell>
        <mxCell id="tfdzGeJg_Y0rsIuQAaYs-12" value="B2" style="whiteSpace=wrap;html=1;aspect=fixed;fillColor=#dae8fc;strokeColor=#6c8ebf;" vertex="1" parent="1">
          <mxGeometry x="124" y="102" width="20" height="20" as="geometry" />
        </mxCell>
        <mxCell id="tfdzGeJg_Y0rsIuQAaYs-13" value="" style="whiteSpace=wrap;html=1;aspect=fixed;" vertex="1" parent="1">
          <mxGeometry x="154" y="102" width="20" height="20" as="geometry" />
        </mxCell>
        <mxCell id="tfdzGeJg_Y0rsIuQAaYs-14" value="" style="whiteSpace=wrap;html=1;aspect=fixed;" vertex="1" parent="1">
          <mxGeometry x="184" y="102" width="20" height="20" as="geometry" />
        </mxCell>
        <mxCell id="tfdzGeJg_Y0rsIuQAaYs-15" value="" style="whiteSpace=wrap;html=1;aspect=fixed;" vertex="1" parent="1">
          <mxGeometry x="234" y="102" width="20" height="20" as="geometry" />
        </mxCell>
        <mxCell id="tfdzGeJg_Y0rsIuQAaYs-16" value="B2" style="whiteSpace=wrap;html=1;aspect=fixed;fillColor=#dae8fc;strokeColor=#6c8ebf;" vertex="1" parent="1">
          <mxGeometry x="264" y="102" width="20" height="20" as="geometry" />
        </mxCell>
        <mxCell id="tfdzGeJg_Y0rsIuQAaYs-17" value="B1" style="whiteSpace=wrap;html=1;aspect=fixed;fillColor=#d5e8d4;strokeColor=#82b366;" vertex="1" parent="1">
          <mxGeometry x="294" y="102" width="20" height="20" as="geometry" />
        </mxCell>
        <mxCell id="tfdzGeJg_Y0rsIuQAaYs-25" value="" style="group" vertex="1" connectable="0" parent="1">
          <mxGeometry x="99" y="16" width="95" height="30" as="geometry" />
        </mxCell>
        <mxCell id="tfdzGeJg_Y0rsIuQAaYs-23" value="" style="endArrow=classic;html=1;rounded=0;" edge="1" parent="tfdzGeJg_Y0rsIuQAaYs-25">
          <mxGeometry width="50" height="50" relative="1" as="geometry">
            <mxPoint x="85" y="24" as="sourcePoint" />
            <mxPoint x="5" y="24" as="targetPoint" />
          </mxGeometry>
        </mxCell>
        <mxCell id="tfdzGeJg_Y0rsIuQAaYs-24" value="&lt;font style=&quot;font-size: 6px;&quot;&gt;&amp;nbsp; &amp;nbsp; &amp;nbsp; &amp;nbsp;[(#1.1, #3.3), (#3.2, #2.1)]&lt;/font&gt;" style="text;html=1;align=center;verticalAlign=middle;resizable=0;points=[];autosize=1;strokeColor=none;fillColor=none;" vertex="1" parent="tfdzGeJg_Y0rsIuQAaYs-25">
          <mxGeometry x="-5" width="100" height="30" as="geometry" />
        </mxCell>
        <mxCell id="tfdzGeJg_Y0rsIuQAaYs-26" value="" style="group" vertex="1" connectable="0" parent="1">
          <mxGeometry x="101" width="83" height="30" as="geometry" />
        </mxCell>
        <mxCell id="tfdzGeJg_Y0rsIuQAaYs-18" value="" style="endArrow=classic;html=1;rounded=0;" edge="1" parent="tfdzGeJg_Y0rsIuQAaYs-26">
          <mxGeometry width="50" height="50" relative="1" as="geometry">
            <mxPoint x="3" y="23" as="sourcePoint" />
            <mxPoint x="83" y="23" as="targetPoint" />
          </mxGeometry>
        </mxCell>
        <mxCell id="tfdzGeJg_Y0rsIuQAaYs-19" value="&lt;font style=&quot;font-size: 8px;&quot;&gt;get file blocks loc&lt;/font&gt;" style="text;html=1;align=center;verticalAlign=middle;resizable=0;points=[];autosize=1;strokeColor=none;fillColor=none;" vertex="1" parent="tfdzGeJg_Y0rsIuQAaYs-26">
          <mxGeometry width="80" height="30" as="geometry" />
        </mxCell>
        <mxCell id="tfdzGeJg_Y0rsIuQAaYs-27" value="" style="group" vertex="1" connectable="0" parent="1">
          <mxGeometry x="104" y="30" width="80" height="30" as="geometry" />
        </mxCell>
        <mxCell id="tfdzGeJg_Y0rsIuQAaYs-21" value="" style="endArrow=classic;html=1;rounded=0;" edge="1" parent="tfdzGeJg_Y0rsIuQAaYs-27">
          <mxGeometry width="50" height="50" relative="1" as="geometry">
            <mxPoint y="23" as="sourcePoint" />
            <mxPoint x="80" y="23" as="targetPoint" />
          </mxGeometry>
        </mxCell>
        <mxCell id="tfdzGeJg_Y0rsIuQAaYs-22" value="&lt;font style=&quot;font-size: 8px;&quot;&gt;done (#3)&lt;/font&gt;" style="text;html=1;align=center;verticalAlign=middle;resizable=0;points=[];autosize=1;strokeColor=none;fillColor=none;" vertex="1" parent="tfdzGeJg_Y0rsIuQAaYs-27">
          <mxGeometry x="10" width="60" height="30" as="geometry" />
        </mxCell>
        <mxCell id="tfdzGeJg_Y0rsIuQAaYs-28" value="" style="endArrow=classic;startArrow=classic;html=1;rounded=0;entryX=0.314;entryY=1.014;entryDx=0;entryDy=0;entryPerimeter=0;" edge="1" parent="1" target="tfdzGeJg_Y0rsIuQAaYs-1">
          <mxGeometry width="50" height="50" relative="1" as="geometry">
            <mxPoint x="24" y="100" as="sourcePoint" />
            <mxPoint x="74" y="40" as="targetPoint" />
          </mxGeometry>
        </mxCell>
        <mxCell id="tfdzGeJg_Y0rsIuQAaYs-30" value="" style="endArrow=classic;startArrow=classic;html=1;rounded=0;exitX=0.406;exitY=1.057;exitDx=0;exitDy=0;exitPerimeter=0;" edge="1" parent="1" source="tfdzGeJg_Y0rsIuQAaYs-1">
          <mxGeometry width="50" height="50" relative="1" as="geometry">
            <mxPoint x="39" y="100" as="sourcePoint" />
            <mxPoint x="129" y="100" as="targetPoint" />
          </mxGeometry>
        </mxCell>
        <mxCell id="tfdzGeJg_Y0rsIuQAaYs-31" value="" style="endArrow=classic;startArrow=classic;html=1;rounded=0;" edge="1" parent="1">
          <mxGeometry width="50" height="50" relative="1" as="geometry">
            <mxPoint x="79" y="52" as="sourcePoint" />
            <mxPoint x="269" y="100" as="targetPoint" />
          </mxGeometry>
        </mxCell>
        <mxCell id="tfdzGeJg_Y0rsIuQAaYs-32" value="try 1" style="text;html=1;align=center;verticalAlign=middle;whiteSpace=wrap;rounded=0;rotation=-60;" vertex="1" parent="1">
          <mxGeometry x="3" y="54" width="60" height="30" as="geometry" />
        </mxCell>
        <mxCell id="tfdzGeJg_Y0rsIuQAaYs-33" value="try 2&lt;span style=&quot;color: rgba(0, 0, 0, 0); font-family: monospace; font-size: 0px; text-align: start; text-wrap-mode: nowrap;&quot;&gt;%3CmxGraphModel%3E%3Croot%3E%3CmxCell%20id%3D%220%22%2F%3E%3CmxCell%20id%3D%221%22%20parent%3D%220%22%2F%3E%3CmxCell%20id%3D%222%22%20value%3D%22try%201%22%20style%3D%22text%3Bhtml%3D1%3Balign%3Dcenter%3BverticalAlign%3Dmiddle%3BwhiteSpace%3Dwrap%3Brounded%3D0%3B%22%20vertex%3D%221%22%20parent%3D%221%22%3E%3CmxGeometry%20x%3D%22135%22%20y%3D%22160%22%20width%3D%2260%22%20height%3D%2230%22%20as%3D%22geometry%22%2F%3E%3C%2FmxCell%3E%3C%2Froot%3E%3C%2FmxGraphModel%3E&lt;/span&gt;" style="text;html=1;align=center;verticalAlign=middle;whiteSpace=wrap;rounded=0;rotation=34;" vertex="1" parent="1">
          <mxGeometry x="74" y="57" width="60" height="30" as="geometry" />
        </mxCell>
        <mxCell id="tfdzGeJg_Y0rsIuQAaYs-34" value="try 1&lt;span style=&quot;color: rgba(0, 0, 0, 0); font-family: monospace; font-size: 0px; text-align: start; text-wrap-mode: nowrap;&quot;&gt;%3CmxGraphModel%3E%3Croot%3E%3CmxCell%20id%3D%220%22%2F%3E%3CmxCell%20id%3D%221%22%20parent%3D%220%22%2F%3E%3CmxCell%20id%3D%222%22%20value%3D%22try%201%22%20style%3D%22text%3Bhtml%3D1%3Balign%3Dcenter%3BverticalAlign%3Dmiddle%3BwhiteSpace%3Dwrap%3Brounded%3D0%3B%22%20vertex%3D%221%22%20parent%3D%221%22%3E%3CmxGeometry%20x%3D%22135%22%20y%3D%22160%22%20width%3D%2260%22%20height%3D%2230%22%20as%3D%22geometry%22%2F%3E%3C%2FmxCell%3E%3C%2Froot%3E%3C%2FmxGraphModel%1&lt;/span&gt;" style="text;html=1;align=center;verticalAlign=middle;whiteSpace=wrap;rounded=0;rotation=15;" vertex="1" parent="1">
          <mxGeometry x="164" y="57" width="60" height="30" as="geometry" />
        </mxCell>
        <mxCell id="tfdzGeJg_Y0rsIuQAaYs-35" value="" style="shape=cross;whiteSpace=wrap;html=1;size=0;direction=south;rotation=-45;fillColor=#f8cecc;strokeColor=#b85450;" vertex="1" parent="1">
          <mxGeometry x="256.5" y="94.49999999999997" width="35" height="35" as="geometry" />
        </mxCell>
        <mxCell id="tfdzGeJg_Y0rsIuQAaYs-37" value="&lt;font style=&quot;font-size: 14px;&quot;&gt;Client&lt;/font&gt;" style="text;html=1;align=center;verticalAlign=middle;resizable=0;points=[];autosize=1;strokeColor=none;fillColor=none;" vertex="1" parent="1">
          <mxGeometry x="36.00038105676657" y="170" width="60" height="30" as="geometry" />
        </mxCell>
        <mxCell id="tfdzGeJg_Y0rsIuQAaYs-38" value="&lt;font style=&quot;font-size: 14px;&quot;&gt;NameNode&lt;/font&gt;" style="text;html=1;align=center;verticalAlign=middle;resizable=0;points=[];autosize=1;strokeColor=none;fillColor=none;" vertex="1" parent="1">
          <mxGeometry x="189.00038105676663" y="170" width="90" height="30" as="geometry" />
        </mxCell>
        <mxCell id="tfdzGeJg_Y0rsIuQAaYs-39" value="DataNode 1" style="text;html=1;align=center;verticalAlign=middle;resizable=0;points=[];autosize=1;strokeColor=none;fillColor=none;" vertex="1" parent="1">
          <mxGeometry x="9.000381056766571" y="272" width="90" height="30" as="geometry" />
        </mxCell>
        <mxCell id="tfdzGeJg_Y0rsIuQAaYs-40" value="DataNode 2" style="text;html=1;align=center;verticalAlign=middle;resizable=0;points=[];autosize=1;strokeColor=none;fillColor=none;" vertex="1" parent="1">
          <mxGeometry x="119.00038105676663" y="303" width="90" height="30" as="geometry" />
        </mxCell>
        <mxCell id="tfdzGeJg_Y0rsIuQAaYs-41" value="DataNode 3" style="text;html=1;align=center;verticalAlign=middle;resizable=0;points=[];autosize=1;strokeColor=none;fillColor=none;" vertex="1" parent="1">
          <mxGeometry x="229.00038105676663" y="272" width="90" height="30" as="geometry" />
        </mxCell>
        <mxCell id="tfdzGeJg_Y0rsIuQAaYs-42" value="" style="whiteSpace=wrap;html=1;aspect=fixed;fillColor=#d5e8d4;strokeColor=#82b366;" vertex="1" parent="1">
          <mxGeometry x="14.000381056766571" y="252" width="20" height="20" as="geometry" />
        </mxCell>
        <mxCell id="tfdzGeJg_Y0rsIuQAaYs-43" value="" style="whiteSpace=wrap;html=1;aspect=fixed;" vertex="1" parent="1">
          <mxGeometry x="44.00038105676657" y="252" width="20" height="20" as="geometry" />
        </mxCell>
        <mxCell id="tfdzGeJg_Y0rsIuQAaYs-44" value="" style="whiteSpace=wrap;html=1;aspect=fixed;" vertex="1" parent="1">
          <mxGeometry x="74.00038105676657" y="252" width="20" height="20" as="geometry" />
        </mxCell>
        <mxCell id="tfdzGeJg_Y0rsIuQAaYs-45" value="" style="whiteSpace=wrap;html=1;aspect=fixed;" vertex="1" parent="1">
          <mxGeometry x="124.00038105676663" y="283" width="20" height="20" as="geometry" />
        </mxCell>
        <mxCell id="tfdzGeJg_Y0rsIuQAaYs-46" value="" style="whiteSpace=wrap;html=1;aspect=fixed;" vertex="1" parent="1">
          <mxGeometry x="154.00038105676663" y="283" width="20" height="20" as="geometry" />
        </mxCell>
        <mxCell id="tfdzGeJg_Y0rsIuQAaYs-47" value="" style="whiteSpace=wrap;html=1;aspect=fixed;" vertex="1" parent="1">
          <mxGeometry x="184.00038105676663" y="283" width="20" height="20" as="geometry" />
        </mxCell>
        <mxCell id="tfdzGeJg_Y0rsIuQAaYs-48" value="" style="whiteSpace=wrap;html=1;aspect=fixed;fillColor=#d5e8d4;strokeColor=#82b366;" vertex="1" parent="1">
          <mxGeometry x="234.00038105676663" y="252" width="20" height="20" as="geometry" />
        </mxCell>
        <mxCell id="tfdzGeJg_Y0rsIuQAaYs-49" value="" style="whiteSpace=wrap;html=1;aspect=fixed;" vertex="1" parent="1">
          <mxGeometry x="264.0003810567666" y="252" width="20" height="20" as="geometry" />
        </mxCell>
        <mxCell id="tfdzGeJg_Y0rsIuQAaYs-50" value="" style="whiteSpace=wrap;html=1;aspect=fixed;" vertex="1" parent="1">
          <mxGeometry x="294.0003810567666" y="252" width="20" height="20" as="geometry" />
        </mxCell>
        <mxCell id="tfdzGeJg_Y0rsIuQAaYs-51" value="" style="group" vertex="1" connectable="0" parent="1">
          <mxGeometry x="99.00038105676657" y="166" width="95" height="30" as="geometry" />
        </mxCell>
        <mxCell id="tfdzGeJg_Y0rsIuQAaYs-52" value="" style="endArrow=classic;html=1;rounded=0;" edge="1" parent="tfdzGeJg_Y0rsIuQAaYs-51">
          <mxGeometry width="50" height="50" relative="1" as="geometry">
            <mxPoint x="85" y="24" as="sourcePoint" />
            <mxPoint x="5" y="24" as="targetPoint" />
          </mxGeometry>
        </mxCell>
        <mxCell id="tfdzGeJg_Y0rsIuQAaYs-53" value="&lt;span style=&quot;font-size: 6px;&quot;&gt;[(#1.1, #3.1)]&lt;/span&gt;" style="text;html=1;align=center;verticalAlign=middle;resizable=0;points=[];autosize=1;strokeColor=none;fillColor=none;" vertex="1" parent="tfdzGeJg_Y0rsIuQAaYs-51">
          <mxGeometry x="15" width="60" height="30" as="geometry" />
        </mxCell>
        <mxCell id="tfdzGeJg_Y0rsIuQAaYs-54" value="" style="group" vertex="1" connectable="0" parent="1">
          <mxGeometry x="109.00038105676657" y="152" width="90" height="30" as="geometry" />
        </mxCell>
        <mxCell id="tfdzGeJg_Y0rsIuQAaYs-55" value="" style="endArrow=classic;html=1;rounded=0;" edge="1" parent="tfdzGeJg_Y0rsIuQAaYs-54">
          <mxGeometry width="50" height="50" relative="1" as="geometry">
            <mxPoint x="-5" y="21" as="sourcePoint" />
            <mxPoint x="75" y="21" as="targetPoint" />
          </mxGeometry>
        </mxCell>
        <mxCell id="tfdzGeJg_Y0rsIuQAaYs-56" value="&lt;font style=&quot;font-size: 9px;&quot;&gt;where to write&amp;nbsp; &amp;nbsp; &amp;nbsp; &amp;nbsp;&lt;/font&gt;" style="text;html=1;align=center;verticalAlign=middle;resizable=0;points=[];autosize=1;strokeColor=none;fillColor=none;" vertex="1" parent="tfdzGeJg_Y0rsIuQAaYs-54">
          <mxGeometry x="-10" width="100" height="30" as="geometry" />
        </mxCell>
        <mxCell id="tfdzGeJg_Y0rsIuQAaYs-57" value="" style="group" vertex="1" connectable="0" parent="1">
          <mxGeometry x="104.00038105676657" y="180" width="80" height="30" as="geometry" />
        </mxCell>
        <mxCell id="tfdzGeJg_Y0rsIuQAaYs-58" value="" style="endArrow=classic;html=1;rounded=0;" edge="1" parent="tfdzGeJg_Y0rsIuQAaYs-57">
          <mxGeometry width="50" height="50" relative="1" as="geometry">
            <mxPoint y="23" as="sourcePoint" />
            <mxPoint x="80" y="23" as="targetPoint" />
          </mxGeometry>
        </mxCell>
        <mxCell id="tfdzGeJg_Y0rsIuQAaYs-59" value="&lt;font style=&quot;font-size: 8px;&quot;&gt;done (#3)&lt;/font&gt;" style="text;html=1;align=center;verticalAlign=middle;resizable=0;points=[];autosize=1;strokeColor=none;fillColor=none;" vertex="1" parent="tfdzGeJg_Y0rsIuQAaYs-57">
          <mxGeometry x="10" width="60" height="30" as="geometry" />
        </mxCell>
        <mxCell id="tfdzGeJg_Y0rsIuQAaYs-67" value="" style="endArrow=classic;html=1;rounded=0;" edge="1" parent="1">
          <mxGeometry width="50" height="50" relative="1" as="geometry">
            <mxPoint x="53.84" y="200" as="sourcePoint" />
            <mxPoint x="53.84" y="240" as="targetPoint" />
          </mxGeometry>
        </mxCell>
        <mxCell id="tfdzGeJg_Y0rsIuQAaYs-68" value="" style="endArrow=classic;html=1;rounded=0;" edge="1" parent="1">
          <mxGeometry width="50" height="50" relative="1" as="geometry">
            <mxPoint x="81" y="240" as="sourcePoint" />
            <mxPoint x="81" y="200" as="targetPoint" />
          </mxGeometry>
        </mxCell>
        <mxCell id="tfdzGeJg_Y0rsIuQAaYs-69" value="" style="endArrow=classic;html=1;rounded=0;" edge="1" parent="1">
          <mxGeometry width="50" height="50" relative="1" as="geometry">
            <mxPoint x="116" y="252" as="sourcePoint" />
            <mxPoint x="216" y="252" as="targetPoint" />
          </mxGeometry>
        </mxCell>
        <mxCell id="tfdzGeJg_Y0rsIuQAaYs-70" value="" style="endArrow=classic;html=1;rounded=0;" edge="1" parent="1">
          <mxGeometry width="50" height="50" relative="1" as="geometry">
            <mxPoint x="216" y="270" as="sourcePoint" />
            <mxPoint x="116" y="270" as="targetPoint" />
          </mxGeometry>
        </mxCell>
        <mxCell id="tfdzGeJg_Y0rsIuQAaYs-71" value="&lt;font style=&quot;font-size: 5px;&quot;&gt;write (#1.1, #3.1)&lt;/font&gt;" style="text;html=1;align=center;verticalAlign=middle;whiteSpace=wrap;rounded=0;rotation=-90;" vertex="1" parent="1">
          <mxGeometry x="-10" y="203" width="102" height="30" as="geometry" />
        </mxCell>
        <mxCell id="tfdzGeJg_Y0rsIuQAaYs-73" value="&lt;font style=&quot;font-size: 8px;&quot;&gt;done&lt;/font&gt;" style="text;html=1;align=center;verticalAlign=middle;whiteSpace=wrap;rounded=0;rotation=90;" vertex="1" parent="1">
          <mxGeometry x="41" y="210" width="102" height="30" as="geometry" />
        </mxCell>
        <mxCell id="tfdzGeJg_Y0rsIuQAaYs-74" value="&lt;font style=&quot;font-size: 8px;&quot;&gt;write #3.1&lt;/font&gt;" style="text;html=1;align=center;verticalAlign=middle;whiteSpace=wrap;rounded=0;rotation=0;" vertex="1" parent="1">
          <mxGeometry x="113" y="227" width="102" height="30" as="geometry" />
        </mxCell>
        <mxCell id="tfdzGeJg_Y0rsIuQAaYs-75" value="&lt;font style=&quot;font-size: 8px;&quot;&gt;done&lt;/font&gt;" style="text;html=1;align=center;verticalAlign=middle;whiteSpace=wrap;rounded=0;rotation=0;" vertex="1" parent="1">
          <mxGeometry x="113" y="247" width="102" height="30" as="geometry" />
        </mxCell>
      </root>
    </mxGraphModel>
  </diagram>
</mxfile>
